# xmcd
#
# Track frame offsets:
#	150
#	19279
#	33733
#	48416
#	64811
#	78409
#	93833
#	109193
#	124384
#	138424
#	152041
#	163715
#	178759
#	195073
#	210403
#	228286
#	243277
#	258117
#
# Disc length: 3667 seconds
#
# Revision: 0
# Processed by: cddbd v1.5.2PL0 Copyright (c) Steve Scherf et al.
# Submitted via: EZCDAudioConverter 1.0.8.1
#
DISCID=eb0e5112
DTITLE=Official 2013 Academy Of Music Awards 'Zinepak
DYEAR=2013
DGENRE=Country
TTITLE0=Thomas Rhett - Beer With Jesus
TTITLE1=Tate Stevens - Power of a Love Song
TTITLE2=Randy Houser - Runnin' Outta Moonlight
TTITLE3=Cassadee Pope - Stupid Boy
TTITLE4=Dylan Scott - Makin' This Boy Go Crazy
TTITLE5=Chris Janson - Better I Don't
TTITLE6=Katie Armiger - Black and White
TTITLE7=Parmalee - Carolina
TTITLE8=The Henningsens - American Beautiful
TTITLE9=Brett Eldredge - Don't Ya
TTITLE10=Greg Bates - Fill in the Blank
TTITLE11=John Pardi - Missin' You Crazy
TTITLE12=James Wesley - Thank a Farmer
TTITLE13=Charlie Worsham - Could It Be
TTITLE14=Rachel Farley - Ain't Easy
TTITLE15=Drake White - Simple Life
TTITLE16=Dustin Lynch - Unwind It
TTITLE17=Kristin Kelly - He Loves to Make Me Cry
EXTD=
EXTT0=
EXTT1=
EXTT2=
EXTT3=
EXTT4=
EXTT5=
EXTT6=
EXTT7=
EXTT8=
EXTT9=
EXTT10=
EXTT11=
EXTT12=
EXTT13=
EXTT14=
EXTT15=
EXTT16=
EXTT17=
PLAYORDER=
